#!OML:ASF E:\emotionWalksFemale\Project 1\Capture day 1\Session 1\Female1.ASF
:FULLY-SPECIFIED
:DEGREES
266
root 8.98489 13.6333 23.2028 194.386 0.398732 -177.235
lowerback 17.6767 -0.463836 2.11364
upperback -1.83346 0.0378859 1.15135
thorax -12.0111 -0.0508599 0.054408
lowerneck -12.4894 1.43734 -0.307788
upperneck -13.1704 3.87814 0.524919
head -2.1196 2.72636 0.256101
rclavicle 1.73937e-016 -3.08116e-015
rhumerus -8.67482 -30.6641 -73.3611
rradius 35.9772
rwrist -19.4591
rhand -22.181 -71.2973
rfingers 7.12502
rthumb 4.23401 -258.765
lclavicle 1.73937e-016 -3.08116e-015
lhumerus -34.7406 4.078 66.1628
lradius 40.7684
lwrist -5.29667
lhand -15.8907 -42.4158
lfingers 7.12502
lthumb 10.3056 -12.6883
rfemur -45.9405 -2.44379 29.2706
rtibia 67.1858
rfoot -34.184 -20.4211
rtoes -7.74387
lfemur -51.7433 6.92291 -22.5545
ltibia 72.3633
lfoot -35.6842 9.58474
ltoes -21.7038
267
root 9.00086 13.5831 23.2019 194.344 -0.132329 -177.427
lowerback 17.9621 -0.301802 1.92986
upperback -1.91944 0.203232 1.02259
thorax -12.2726 0.0291061 -0.0272148
lowerneck -12.3914 1.65803 0.116199
upperneck -13.2017 4.08956 -0.174492
head -2.1227 2.8275 -0.0322699
rclavicle 1.06847e-015 6.08778e-015
rhumerus -6.7945 -30.1898 -75.8857
rradius 35.784
rwrist -17.5459
rhand -18.2955 -69.2636
rfingers 7.12502
rthumb 7.98518 -260.907
lclavicle 1.06847e-015 6.08778e-015
lhumerus -35.4686 4.20477 66.3504
lradius 40.1016
lwrist -6.25893
lhand -15.7808 -42.2766
lfingers 7.12502
lthumb 10.4116 -12.5544
rfemur -46.319 -2.59122 29.2442
rtibia 67.9622
rfoot -34.3705 -20.8196
rtoes -7.31133
lfemur -52.1134 6.62036 -22.5823
ltibia 72.896
lfoot -35.8943 9.21834
ltoes -24.1334
268
root 9.01029 13.5577 23.1815 194.464 -0.656117 -177.432
lowerback 17.8557 -0.0697641 2.06698
upperback -2.04546 0.431612 0.923385
thorax -12.3478 0.0793 -0.26974
lowerneck -12.3556 4.16983 0.0578944
upperneck -13.1599 3.75319 -1.35999
head -2.08716 1.13243 -0.344149
rclavicle -3.60297e-016 -1.81391e-015
rhumerus -6.15443 -25.2414 -78.0001
rradius 38.0482
rwrist -21.7009
rhand -19.2348 -69.7113
rfingers 7.12502
rthumb 7.07851 -260.427
lclavicle -3.60297e-016 -1.81391e-015
lhumerus -36.2338 4.46711 66.5855
lradius 39.1943
lwrist -7.40567
lhand -15.4805 -42.2409
lfingers 7.12502
lthumb 10.7013 -12.5335
rfemur -46.5449 -2.71543 29.3531
rtibia 68.5008
rfoot -34.7202 -21.2181
rtoes -6.79929
lfemur -52.3787 6.29028 -22.4369
ltibia 73.256
lfoot -35.8066 8.8401
ltoes -24.1456
269
root 9.02732 13.5368 23.1714 194.551 -1.42767 -177.527
lowerback 17.9138 0.0442704 2.0938
upperback -2.12252 0.589478 0.862512
thorax -12.466 0.148333 -0.39712
lowerneck -12.4341 4.40607 0.40772
upperneck -13.189 3.98498 -2.16311
head -2.05784 1.24567 -0.649311
rclavicle 3.65267e-015 -4.47266e-015
rhumerus -4.5591 -21.9636 -80.5168
rradius 39.3293
rwrist -24.8191
rhand -20.511 -69.5036
rfingers 7.12502
rthumb 5.84649 -260.597
lclavicle 3.65267e-015 -4.47266e-015
lhumerus -37.0055 4.7455 66.999
lradius 38.437
lwrist -8.45303
lhand -14.9548 -41.9324
lfingers 7.12502
lthumb 11.2083 -12.2518
rfemur -46.7472 -3.00453 29.4817
rtibia 68.9016
rfoot -34.9775 -21.7422
rtoes -6.16284
lfemur -52.6517 5.72807 -22.2873
ltibia 73.4555
lfoot -35.6523 8.45854
ltoes -24.0334
270
root 9.04853 13.5279 23.1553 194.557 -2.22125 -177.599
lowerback 17.9822 0.220806 2.09288
upperback -2.1882 0.826657 0.828015
thorax -12.5757 0.256737 -0.502514
lowerneck -12.3057 4.60798 0.739297
upperneck -13.4049 4.1577 -3.01832
head -2.1222 1.32906 -0.976918
rclavicle 3.52843e-015 -3.97569e-016
rhumerus -3.20171 -18.8256 -82.6677
rradius 40.7457
rwrist -23.9983
rhand -15.9171 -66.0877
rfingers 7.12502
rthumb 10.2802 -264.184
lclavicle 3.52843e-015 -3.97569e-016
lhumerus -37.9463 4.56306 67.6728
lradius 37.989
lwrist -9.1506
lhand -14.4451 -40.9209
lfingers 7.12502
lthumb 11.6999 -11.2676
rfemur -46.7124 -3.26751 29.6502
rtibia 69.0443
rfoot -34.9317 -22.5906
rtoes -6.4999
lfemur -52.7159 5.12539 -22.0553
ltibia 73.4742
lfoot -35.5821 7.81925
ltoes -22.9601
271
root 9.06865 13.5305 23.1298 194.556 -2.94842 -177.636
lowerback 17.9368 0.483206 2.1696
upperback -2.28426 1.18876 0.740798
thorax -12.6474 0.416145 -0.745869
lowerneck -12.0592 4.80598 1.07593
upperneck -13.6831 4.33422 -3.78847
head -2.22704 1.41769 -1.28551
rclavicle -1.61513e-015 5.1684e-015
rhumerus -2.63121 -14.136 -84.4664
rradius 43.7373
rwrist -27.4173
rhand -21.6139 -71.1076
rfingers 7.12502
rthumb 4.78154 -258.966
lclavicle -1.61513e-015 5.1684e-015
lhumerus -38.9941 4.05755 68.406
lradius 37.6044
lwrist -9.916
lhand -13.9531 -39.6734
lfingers 7.12502
lthumb 12.1743 -10.0476
rfemur -46.5111 -3.43976 29.7943
rtibia 68.9534
rfoot -34.673 -23.5817
rtoes -7.64831
lfemur -52.6036 4.54871 -21.8028
ltibia 73.2967
lfoot -35.5596 7.34283
ltoes -22.3909
